<?xml version="1.0" standalone="no"?>
<!DOCTYPE svg PUBLIC "-//W3C//DTD SVG 20010904//EN"
 "http://www.w3.org/TR/2001/REC-SVG-20010904/DTD/svg10.dtd">
<svg version="1.0" xmlns="http://www.w3.org/2000/svg"
 width="1280.000000pt" height="1280.000000pt" viewBox="0 0 1280.000000 1280.000000"
 preserveAspectRatio="xMidYMid meet">

<g transform="translate(0.000000,1280.000000) scale(0.100000,-0.100000)"
fill="#000000" stroke="none">
<path d="M5965 12779 c-1338 -101 -2598 -603 -3620 -1443 -1167 -958 -1958
-2301 -2230 -3779 -30 -163 -68 -431 -87 -607 -20 -195 -17 -960 5 -1160 129
-1152 488 -2133 1110 -3030 621 -896 1431 -1602 2385 -2079 711 -355 1400
-557 2252 -657 299 -35 996 -29 1360 12 741 84 1572 338 2210 676 616 327
1087 674 1576 1162 245 246 409 433 596 681 637 845 1056 1847 1212 2900 58
389 61 437 60 945 0 526 -7 618 -79 1045 -158 939 -498 1783 -1033 2565 -939
1370 -2372 2320 -4007 2654 -317 65 -605 102 -904 116 -231 11 -650 11 -806
-1z m846 -1069 c1080 -83 2077 -478 2944 -1166 184 -146 617 -571 757 -744
863 -1065 1282 -2324 1219 -3669 -49 -1040 -404 -2043 -1019 -2882 -103 -139
-127 -169 -138 -169 -9 0 -61 49 -379 354 -565 543 -2113 2056 -2846 2784
-234 232 -428 422 -431 422 -3 0 -11 -23 -18 -50 -7 -30 -26 -68 -46 -91 -33
-39 -34 -44 -34 -123 0 -61 6 -101 24 -152 13 -38 31 -127 41 -199 9 -71 23
-170 30 -220 8 -49 19 -139 26 -200 6 -60 13 -114 16 -118 3 -5 8 -97 12 -205
l7 -196 216 -211 c119 -115 514 -503 879 -860 733 -719 1127 -1101 1504 -1459
138 -131 251 -242 253 -246 4 -10 -214 -180 -383 -298 -515 -360 -1153 -647
-1780 -801 -337 -82 -758 -141 -1008 -141 l-97 0 2 1561 3 1561 204 109 c112
60 215 116 229 125 l25 16 -7 137 c-4 75 -13 216 -19 314 l-12 179 -565 558
c-311 307 -567 556 -569 554 -2 -2 2 -16 8 -32 9 -22 8 -148 -3 -553 -29 -970
-37 -1392 -29 -1399 4 -4 43 -18 86 -30 l77 -23 0 -1535 0 -1535 -87 7 c-329
26 -786 122 -1153 241 -734 240 -1471 675 -1976 1167 -328 320 -435 438 -619
683 -217 289 -382 557 -540 880 -268 547 -439 1135 -510 1747 -36 318 -36 865
0 1178 103 886 410 1712 904 2430 97 141 251 345 261 345 4 0 808 -795 1785
-1767 977 -973 1780 -1768 1784 -1768 4 0 5 18 3 40 -2 22 0 46 6 53 6 7 40
23 76 37 65 24 66 25 66 62 0 33 -3 38 -23 38 -29 0 -80 44 -106 93 -12 20
-26 70 -32 110 -14 91 -7 338 15 472 28 181 45 308 41 314 -2 4 -50 30 -107
60 -143 73 -260 162 -413 316 -193 192 -222 263 -198 478 l9 77 -1073 1072
c-590 590 -1073 1075 -1073 1079 0 4 60 51 133 106 522 391 1021 653 1607 842
406 131 793 206 1265 244 101 9 655 6 776 -3z"/>
<path d="M6365 11020 c-146 -26 -370 -123 -525 -228 -83 -56 -85 -58 -106
-122 -12 -36 -51 -186 -87 -335 -36 -148 -129 -533 -207 -855 -182 -754 -214
-885 -241 -1000 l-22 -95 868 -863 c624 -620 871 -860 879 -852 6 6 11 51 11
103 l1 92 99 197 99 197 49 11 c69 14 192 64 237 95 42 29 65 74 123 240 76
216 100 311 211 815 118 531 185 860 230 1130 57 340 59 429 9 550 -57 141
-196 372 -292 488 -131 157 -508 333 -881 412 -117 25 -367 36 -455 20z"/>
</g>
</svg>
