<?xml version="1.0" standalone="no"?>
<!DOCTYPE svg PUBLIC "-//W3C//DTD SVG 20010904//EN"
 "http://www.w3.org/TR/2001/REC-SVG-20010904/DTD/svg10.dtd">
<svg version="1.0" xmlns="http://www.w3.org/2000/svg"
 width="1280.000000pt" height="1204.000000pt" viewBox="0 0 1280.000000 1204.000000"
 preserveAspectRatio="xMidYMid meet">
<metadata>
Created by potrace 1.15, written by Peter Selinger 2001-2017
</metadata>
<g transform="translate(0.000000,1204.000000) scale(0.100000,-0.100000)"
fill="#000000" stroke="none">
<path d="M2762 11578 c-46 -254 -85 -465 -88 -467 -2 -2 -5 -2 -7 0 -2 2 -133
182 -291 399 -159 217 -293 400 -298 405 -12 12 -10 -33 32 -600 16 -219 28
-401 26 -402 -2 -2 -178 139 -391 314 -212 175 -390 319 -394 321 -4 1 66
-215 155 -480 89 -266 161 -484 160 -485 -1 -1 -208 94 -461 212 -252 118
-460 213 -462 212 -1 -2 117 -187 263 -412 231 -356 263 -410 250 -423 -12
-13 -60 -6 -373 52 -197 37 -411 77 -476 90 -65 13 -116 20 -115 16 2 -4 127
-121 278 -260 151 -139 290 -267 309 -285 l34 -33 -39 -62 c-21 -34 -43 -64
-49 -66 -5 -2 -188 -15 -405 -29 -217 -15 -396 -28 -398 -30 -2 -1 133 -76
300 -165 167 -90 304 -164 305 -165 2 -1 -12 -39 -31 -86 -18 -46 -42 -110
-52 -141 l-19 -58 -262 -87 c-209 -70 -263 -91 -263 -105 0 -19 -4 -17 220
-72 80 -20 161 -40 181 -46 l36 -10 -23 -132 c-12 -73 -25 -171 -28 -218 -12
-144 -1 -129 -163 -232 l-147 -93 146 -3 145 -3 6 -129 c8 -141 28 -317 54
-450 19 -102 19 -117 -2 -140 -10 -11 -12 -19 -5 -22 8 -2 8 -31 -1 -102 -7
-58 -9 -161 -6 -245 4 -130 3 -148 -13 -166 -46 -52 -157 -231 -209 -339 -280
-574 -249 -1189 84 -1688 30 -46 63 -93 72 -106 l18 -22 2888 2 c1588 2 2887
-1 2887 -5 0 -7 -357 -707 -364 -715 -2 -1 -36 13 -77 32 l-74 35 -17 -22
c-10 -12 -17 -24 -17 -27 0 -3 31 -29 70 -58 l69 -53 -63 -124 c-34 -69 -65
-125 -68 -125 -4 0 -100 54 -213 119 l-206 119 -9 -36 c-20 -77 -214 -803
-310 -1161 -56 -206 -103 -376 -105 -378 -2 -3 -18 3 -35 11 -40 21 -46 20
-59 -9 -10 -22 -8 -27 28 -56 22 -18 40 -38 40 -45 0 -7 -54 -212 -119 -456
-196 -729 -400 -1491 -406 -1518 -5 -22 -1 -27 27 -38 18 -6 35 -8 39 -4 3 4
163 279 354 612 192 333 353 611 359 617 9 10 22 9 60 -2 27 -8 66 -15 88 -15
33 0 38 -3 38 -22 0 -50 11 -68 40 -68 27 0 29 3 35 54 l7 54 75 37 c53 26 98
59 153 114 43 42 82 85 88 96 10 18 13 18 98 -20 48 -22 90 -41 94 -43 4 -1
15 8 23 22 17 25 17 25 -74 96 -81 64 -90 75 -86 99 36 197 47 268 47 297 0
30 7 39 70 85 39 28 70 54 70 58 0 4 -6 16 -14 26 -13 18 -15 18 -57 2 -23 -9
-44 -15 -46 -13 -2 2 1 95 7 205 10 186 19 241 42 241 3 0 92 -50 197 -110
104 -60 193 -110 198 -110 4 0 115 186 246 413 131 226 241 418 246 425 6 11
15 10 44 -4 36 -17 38 -17 52 2 20 26 19 30 -15 54 -16 12 -30 25 -30 30 0 4
165 294 368 644 l367 636 2281 0 c2158 0 2282 1 2296 18 45 53 177 311 241
472 100 250 145 459 154 705 l6 160 73 128 c399 704 440 1371 116 1868 -212
325 -553 545 -987 635 -116 24 -153 27 -335 28 -214 1 -274 -6 -452 -50 -370
-92 -707 -309 -952 -612 -32 -40 -60 -71 -62 -69 -2 2 -31 57 -65 123 -570
1107 -1537 1880 -2669 2134 -251 56 -543 90 -779 90 -98 0 -141 3 -131 10 13
9 13 10 0 10 -19 0 -391 -50 -902 -121 -42 -6 -82 -9 -88 -7 -6 2 122 188 284
413 162 225 294 410 293 412 -2 1 -212 -83 -467 -188 -256 -104 -468 -188
-471 -187 -4 2 76 214 177 472 101 258 183 471 181 472 -1 2 -184 -132 -406
-297 -222 -165 -406 -298 -408 -295 -3 2 -2 39 2 81 l7 76 57 29 c70 35 85 52
77 84 -6 24 -52 46 -97 46 -13 0 -14 9 -7 63 20 148 76 622 74 624 -1 1 -129
-155 -285 -347 l-283 -350 -49 0 c-47 0 -49 1 -49 28 -1 46 -106 831 -113 838
-3 4 -12 4 -19 1 -8 -2 -103 -201 -213 -441 -145 -317 -202 -432 -208 -419 -4
10 -83 207 -175 438 -154 384 -170 420 -192 423 l-25 3 -83 -463z"/>
<path d="M2725 4232 c-27 -15 -132 -82 -232 -148 -207 -138 -187 -139 -198 9
l-7 87 -29 0 c-33 0 -32 3 -54 -155 -9 -60 -18 -122 -21 -137 -3 -17 -31 -48
-80 -88 l-75 -62 -157 72 c-86 39 -162 74 -168 76 -6 3 -16 -8 -23 -23 -10
-22 -10 -29 1 -38 78 -58 238 -190 238 -196 0 -5 -11 -25 -25 -45 -27 -40 -52
-114 -62 -182 -5 -40 -11 -46 -93 -105 -88 -62 -88 -62 -74 -89 l14 -27 72 30
c39 16 72 28 73 27 2 -2 10 -30 20 -63 40 -143 134 -230 279 -257 52 -10 66
-16 66 -30 0 -14 8 -18 34 -18 28 0 35 4 38 21 2 16 17 26 58 38 72 23 113 45
182 97 57 45 138 131 138 149 0 6 4 16 9 24 7 11 20 8 71 -15 61 -27 63 -27
76 -9 8 10 14 22 14 26 0 4 -24 26 -52 50 -29 23 -56 45 -60 49 -5 3 1 46 11
95 11 50 27 151 36 225 17 138 22 150 72 179 22 12 -4 63 -29 55 -17 -5 -18 3
-12 188 3 106 7 199 10 206 5 17 -3 15 -61 -16z"/>
<path d="M10230 4162 c-74 -48 -174 -115 -222 -149 l-87 -62 -5 32 c-3 18 -9
68 -13 112 l-8 80 -30 0 -29 0 -23 -154 c-12 -85 -24 -158 -25 -162 -2 -5 -34
-34 -73 -67 l-70 -59 -169 79 c-93 43 -170 77 -171 75 -1 -1 -8 -13 -15 -26
-14 -28 -24 -17 133 -140 64 -51 117 -94 117 -97 0 -2 -12 -22 -26 -44 -15
-22 -37 -80 -49 -128 l-22 -87 -74 -53 c-41 -30 -82 -60 -92 -67 -18 -12 -18
-15 -2 -38 l16 -25 71 29 c39 16 74 29 78 29 4 0 15 -28 24 -62 40 -146 143
-241 276 -255 55 -5 60 -8 60 -29 0 -21 5 -24 34 -24 30 0 35 4 38 27 2 22 12
29 54 43 28 10 80 36 117 59 65 42 187 161 187 184 1 37 17 38 90 6 70 -32 73
-32 86 -14 8 10 14 22 14 26 0 5 -32 33 -70 64 -50 40 -69 61 -66 73 12 40 45
244 51 319 l8 83 48 35 c46 33 48 36 37 61 -12 25 -19 26 -62 8 -16 -6 -18 -4
-13 17 7 28 22 389 16 388 -2 0 -65 -40 -139 -87z"/>
<path d="M1790 2567 c-41 -21 -259 -161 -344 -221 -44 -31 -81 -54 -83 -52 -2
2 -7 39 -11 82 l-7 79 -31 3 -31 3 -18 -128 -17 -128 -100 -84 -100 -83 -143
66 c-79 36 -146 66 -148 66 -3 0 -12 -11 -20 -24 -16 -24 -15 -25 103 -117
l119 -93 -24 -40 c-23 -41 -48 -131 -60 -217 -5 -44 -10 -49 -85 -103 -44 -31
-80 -60 -80 -64 0 -4 7 -15 15 -26 13 -18 16 -17 82 8 78 30 83 31 83 14 0
-28 51 -120 90 -162 51 -55 114 -87 200 -101 l65 -11 3 -42 c3 -39 5 -42 32
-42 30 0 35 8 42 69 2 19 12 27 50 38 97 28 260 148 305 223 l16 27 74 -34
c41 -19 76 -33 78 -31 14 17 25 52 18 57 -71 48 -133 106 -128 118 13 34 54
263 61 337 7 78 7 78 49 108 40 28 42 33 32 55 -9 20 -16 24 -40 19 -24 -5
-28 -3 -23 10 10 27 20 434 10 434 -5 0 -20 -6 -34 -13z"/>
<path d="M9371 2547 c-18 -12 -116 -77 -217 -143 l-183 -122 -6 57 c-13 120
-13 121 -45 121 -17 0 -30 -5 -30 -12 0 -7 -9 -68 -19 -135 -16 -113 -20 -124
-47 -145 -16 -13 -58 -48 -93 -79 l-64 -55 -149 68 c-81 37 -150 68 -152 68
-2 0 -11 -11 -19 -24 -16 -23 -15 -24 96 -112 62 -48 116 -91 121 -96 6 -5 2
-23 -11 -45 -21 -38 -50 -149 -56 -213 -3 -30 -13 -41 -87 -95 -46 -33 -85
-65 -87 -71 -2 -5 3 -18 10 -29 14 -18 16 -17 83 9 38 16 75 30 82 33 7 3 12
-3 12 -14 0 -39 61 -142 110 -186 48 -43 150 -87 204 -87 24 0 36 -21 36 -67
0 -19 6 -23 29 -23 31 0 41 18 41 73 0 21 6 30 20 34 92 24 252 139 308 220
12 18 27 33 33 33 5 0 35 -13 67 -29 89 -44 97 -45 111 -15 6 15 10 27 9 28
-2 1 -37 28 -78 61 -41 32 -76 59 -77 59 0 1 7 39 18 86 10 47 25 137 34 200
16 122 17 124 88 167 49 31 23 88 -30 64 -14 -6 -27 -10 -29 -8 -2 2 0 78 6
168 12 197 13 279 3 278 -5 0 -23 -10 -42 -22z"/>
</g>
</svg>
