<?xml version="1.0" standalone="no"?>
<!DOCTYPE svg PUBLIC "-//W3C//DTD SVG 20010904//EN"
 "http://www.w3.org/TR/2001/REC-SVG-20010904/DTD/svg10.dtd">
<svg version="1.0" xmlns="http://www.w3.org/2000/svg"
 width="672.000000pt" height="1000.000000pt" viewBox="0 0 672.000000 1000.000000"
 preserveAspectRatio="xMidYMid meet">

<g transform="translate(0.000000,1000.000000) scale(0.100000,-0.100000)"
fill="#000000" stroke="none">
<path d="M2405 9953 c-56 -8 -149 -34 -185 -53 -46 -24 -154 -140 -198 -213
-24 -40 -34 -70 -37 -109 -2 -29 -16 -93 -30 -143 -15 -49 -30 -98 -32 -108
-3 -10 -18 -21 -34 -24 -33 -6 -44 -18 -52 -53 -4 -18 -20 -33 -51 -47 -34
-17 -45 -28 -48 -49 -2 -20 -9 -28 -28 -31 -14 -2 -32 -13 -41 -25 -11 -14
-18 -17 -23 -9 -12 18 -47 13 -82 -14 -26 -20 -38 -23 -56 -16 -18 7 -30 4
-53 -15 -22 -18 -43 -24 -77 -24 -45 0 -49 -2 -66 -37 -11 -21 -25 -61 -31
-89 l-12 -51 -145 -7 c-238 -10 -343 -40 -403 -113 -45 -54 -67 -123 -95 -291
-39 -234 -47 -252 -240 -537 -244 -360 -314 -504 -331 -682 -9 -92 3 -147 65
-281 43 -95 51 -122 57 -194 9 -130 15 -135 53 -53 34 74 66 125 79 125 4 0
15 -36 24 -81 14 -70 23 -90 75 -162 101 -139 103 -173 22 -360 -79 -186 -140
-426 -176 -700 -13 -95 -15 -163 -10 -307 4 -102 7 -204 6 -226 -2 -80 74
-135 183 -135 52 0 176 28 249 56 18 7 17 10 59 -215 27 -149 99 -465 148
-655 78 -299 130 -441 262 -712 105 -216 158 -340 161 -379 1 -16 -12 -58 -29
-94 -44 -94 -152 -454 -228 -760 -110 -445 -154 -557 -296 -751 -88 -121 -148
-226 -173 -305 -13 -39 -15 -78 -12 -170 2 -65 5 -136 5 -156 1 -28 5 -38 18
-38 15 0 15 -2 -1 -19 -39 -43 -75 -224 -59 -302 4 -24 11 -28 61 -34 50 -6
288 -64 509 -124 127 -35 259 -44 508 -37 127 3 249 9 272 12 39 6 42 9 52 49
16 63 9 72 -62 79 -34 3 -116 23 -183 43 l-120 36 -27 51 c-15 28 -64 91 -108
140 -69 77 -79 93 -74 115 4 15 8 79 10 144 l3 119 47 48 48 48 19 144 c13
104 17 171 12 245 l-6 102 84 200 c45 109 84 198 85 197 3 -3 118 -435 168
-631 72 -285 113 -372 243 -522 95 -109 134 -164 153 -216 18 -51 4 -100 -72
-253 l-61 -121 14 -48 c16 -58 26 -62 168 -71 156 -10 362 22 465 73 28 14 51
26 53 28 1 1 -3 25 -9 54 -8 36 -15 51 -27 51 -15 0 -17 17 -17 148 l0 147 25
0 c24 0 25 3 37 120 15 141 9 237 -19 314 -12 30 -58 110 -103 176 -46 67 -92
140 -104 162 -40 79 -93 288 -226 898 -53 241 -75 320 -110 400 -38 88 -47
126 -78 313 l-35 213 45 142 c24 78 62 198 83 267 33 107 95 403 170 820 28
151 48 317 56 455 3 66 7 135 8 154 3 43 0 42 226 76 96 14 235 34 308 45 72
11 194 29 270 40 203 30 202 30 202 43 0 15 -252 1543 -280 1692 -42 233 -53
355 -53 570 1 142 5 227 14 264 l14 53 74 19 c84 22 124 43 242 131 124 91
179 116 285 127 49 5 101 14 115 19 14 6 50 40 79 76 62 78 74 86 205 120 135
36 197 68 355 187 113 84 169 117 340 201 233 114 350 170 465 222 143 66 171
89 216 178 31 62 37 83 29 93 -15 19 -6 31 39 54 52 27 142 48 236 55 138 11
228 27 295 53 36 13 99 31 140 39 96 19 120 34 120 78 0 22 -7 38 -20 47 -19
13 -19 17 -8 47 12 30 11 35 -6 48 -19 14 -19 15 8 43 23 24 28 36 24 65 l-4
36 56 0 c79 1 159 10 200 24 26 8 36 17 38 37 6 54 -10 57 -288 63 -140 3
-281 8 -312 11 -106 12 -214 -38 -496 -228 l-193 -130 -34 33 c-43 42 -62 38
-158 -39 -94 -74 -114 -86 -131 -72 -8 6 -22 8 -32 4 -39 -14 -176 -104 -292
-191 -239 -181 -305 -214 -612 -306 -252 -75 -291 -91 -534 -215 -116 -59
-249 -120 -295 -136 l-83 -27 -52 50 c-66 65 -106 84 -186 90 -76 5 -152 -12
-270 -62 -44 -19 -80 -32 -80 -30 0 4 96 141 112 159 5 5 6 -16 2 -50 -9 -77
3 -65 32 32 13 43 23 66 23 52 1 -14 -5 -47 -13 -72 -8 -26 -12 -47 -9 -47 15
0 43 50 44 80 l1 35 10 -35 c5 -19 14 -39 20 -45 8 -7 9 -4 4 10 -12 33 -24
105 -17 105 3 -1 17 -23 30 -51 28 -60 37 -59 16 2 -23 64 -37 177 -25 197 8
15 10 15 11 -3 2 -11 5 9 9 45 6 55 7 46 8 -60 1 -69 7 -132 12 -140 7 -10 10
11 10 69 0 90 4 100 14 37 4 -22 8 -41 10 -43 2 -2 4 59 5 134 2 140 14 201
19 93 1 -33 7 -70 12 -82 8 -17 9 -9 4 32 -7 69 -5 140 5 157 4 8 8 -14 8 -49
0 -38 7 -75 17 -93 23 -44 20 -66 -19 -121 -32 -43 -35 -55 -32 -101 2 -47 16
-87 18 -52 2 61 15 111 40 150 32 51 36 92 14 146 -10 24 -15 66 -14 127 1 70
3 83 10 56 5 -22 7 8 4 83 -3 109 -5 120 -29 152 -22 28 -26 41 -20 70 5 30 2
39 -24 63 -18 17 -33 44 -37 64 -5 27 -14 39 -35 48 -15 6 -49 36 -75 66 -49
57 -83 77 -195 114 -126 41 -157 45 -245 33z"/>
<path d="M3065 9200 c-3 -5 -1 -10 4 -10 6 0 11 5 11 10 0 6 -2 10 -4 10 -3 0
-8 -4 -11 -10z"/>
<path d="M3066 9165 c4 -8 8 -15 10 -15 2 0 4 7 4 15 0 8 -4 15 -10 15 -5 0
-7 -7 -4 -15z"/>
</g>
</svg>
