<?xml version="1.0" standalone="no"?>
<!DOCTYPE svg PUBLIC "-//W3C//DTD SVG 20010904//EN"
 "http://www.w3.org/TR/2001/REC-SVG-20010904/DTD/svg10.dtd">
<svg version="1.0" xmlns="http://www.w3.org/2000/svg"
 width="140.000000pt" height="292.000000pt" viewBox="0 0 140.000000 292.000000"
 preserveAspectRatio="xMidYMid meet">

<g transform="translate(0.000000,292.000000) scale(0.100000,-0.100000)"
fill="#000000" stroke="none">
<path d="M604 2810 c-244 -20 -351 -109 -362 -300 -4 -66 -1 -86 17 -124 53
-109 197 -125 280 -31 29 34 51 90 51 130 -1 35 -26 67 -70 89 -53 25 -70 49
-54 74 22 35 65 47 172 47 l103 0 39 -41 c40 -43 70 -120 70 -179 0 -55 -28
-130 -67 -174 -54 -63 -99 -81 -210 -81 l-93 0 0 -27 c0 -16 -3 -38 -6 -50 -6
-22 -4 -23 72 -23 44 0 97 -5 118 -10 134 -31 210 -186 167 -338 -14 -51 -82
-129 -128 -148 -91 -39 -229 20 -205 86 3 8 15 29 28 45 30 41 37 85 24 136
-15 54 -57 93 -115 108 -130 33 -240 -83 -221 -232 25 -182 171 -271 446 -271
189 1 295 32 385 115 65 60 89 124 90 239 0 84 -3 101 -28 152 -33 68 -78 108
-164 145 -35 15 -63 30 -63 33 0 4 32 22 71 41 130 62 176 141 167 286 -13
224 -191 329 -514 303z"/>
<path d="M526 1309 c-2 -8 -7 -53 -10 -100 -14 -202 -131 -465 -285 -641 -32
-36 -41 -54 -41 -82 l0 -36 261 0 262 0 -5 -64 c-8 -94 -40 -147 -100 -166
l-48 -15 0 -72 0 -73 300 0 300 0 0 75 c0 69 -2 75 -20 75 -31 0 -74 25 -104
60 -23 28 -26 40 -26 106 l0 74 76 0 75 0 -3 42 -3 43 -72 3 -73 3 -1 167 c-1
92 -4 209 -8 260 l-6 93 -142 -136 -143 -137 0 -119 0 -119 -186 0 -187 0 114
118 c163 168 300 335 483 590 l38 52 -145 0 c-79 0 -178 3 -220 6 -61 6 -77 4
-81 -7z"/>
</g>
</svg>
