<?xml version="1.0" standalone="no"?>
<!DOCTYPE svg PUBLIC "-//W3C//DTD SVG 20010904//EN" "http://www.w3.org/TR/2001/REC-SVG-20010904/DTD/svg10.dtd">
<svg version="1.0" xmlns="http://www.w3.org/2000/svg" width="165.000000pt" height="165.000000pt" viewBox="0 0 165.000000 165.000000" preserveAspectRatio="xMidYMid meet">

    <circle r="80" cx="85" cy="85" fill="white"/>
    <g transform="translate(0.000000,165.000000) scale(0.100000,-0.100000)" fill="#000000" stroke="none">
        <path d="M1050 1107 c0 -18 21 -27 60 -27 37 0 46 -14 54 -81 4 -39 2 -61 -8
-74 -13 -18 -15 -18 -65 4 -85 36 -144 13 -188 -73 -21 -40 -27 -65 -27 -121
0 -93 29 -150 95 -183 l46 -23 61 21 c54 19 64 20 89 7 35 -17 97 -21 123 -7
29 15 25 27 -14 40 -18 6 -40 18 -49 28 -24 28 -37 138 -37 320 l0 172 -54 0
c-30 0 -61 3 -70 6 -10 4 -16 1 -16 -9z m59 -228 c31 -22 42 -36 38 -50 -3
-10 -1 -36 4 -56 16 -71 -41 -160 -113 -178 -21 -5 -33 2 -72 47 -45 52 -46
54 -46 120 0 66 1 69 40 108 51 51 89 53 149 9z" />
        <path d="M347 953 c-13 -12 15 -33 44 -33 51 0 58 -26 54 -192 -3 -129 -2
-147 13 -152 9 -4 30 -14 47 -23 28 -15 33 -15 91 5 l62 22 44 -20 c67 -31
168 -25 168 10 0 11 -17 25 -49 39 -27 11 -52 29 -56 38 -5 10 -9 81 -10 158
l-2 140 -35 1 c-19 1 -40 4 -47 8 -14 9 -51 -2 -51 -15 0 -5 17 -9 38 -9 70 0
73 -9 56 -134 -9 -60 -19 -119 -24 -131 -12 -33 -95 -68 -143 -62 -69 9 -72
18 -72 192 l0 153 -29 6 c-38 8 -91 8 -99 -1z" />
    </g>
</svg>
