<svg id="svg" version="1.1" xmlns="http://www.w3.org/2000/svg" xmlns:xlink="http://www.w3.org/1999/xlink" width="400" height="400" viewBox="0, 0, 400,400"><g id="svgg"><path id="path0" d="M149.438 52.515 C 149.927 55.527,151.097 68.268,150.925 68.714 C 150.781 69.089,149.115 69.441,144.283 70.117 C 122.806 73.118,80.827 79.067,80.796 79.112 C 80.603 79.391,53.667 160.601,53.667 160.905 C 53.667 161.187,54.119 161.116,55.162 160.668 C 66.800 155.680,96.419 149.830,137.833 144.340 C 146.083 143.247,153.305 142.285,153.882 142.203 L 154.931 142.053 155.173 147.881 L 155.416 153.709 161.625 153.508 C 165.039 153.397,178.408 153.086,191.333 152.816 C 204.258 152.546,216.708 152.171,219.000 151.983 C 224.318 151.545,235.254 150.383,236.302 150.144 L 237.104 149.961 236.902 142.464 C 236.748 136.773,236.796 134.935,237.100 134.836 C 238.581 134.355,262.486 133.565,279.896 133.422 C 298.348 133.270,300.313 133.203,300.512 132.711 C 300.833 131.915,327.667 51.575,327.667 51.409 C 327.667 51.138,308.231 51.998,295.167 52.847 C 282.045 53.700,260.705 55.480,242.928 57.206 C 237.664 57.717,233.290 58.067,233.207 57.984 C 233.125 57.901,232.895 56.661,232.696 55.229 C 232.497 53.796,232.179 52.334,231.989 51.979 C 231.650 51.346,230.852 51.333,190.445 51.333 L 149.246 51.333 149.438 52.515 M181.667 225.669 C 168.375 226.002,157.500 226.288,157.500 226.304 C 157.500 226.320,157.500 239.533,157.500 255.667 L 157.500 285.000 158.713 285.000 C 185.494 285.000,220.194 278.731,234.714 271.270 L 238.594 269.276 238.722 264.388 C 238.793 261.700,238.791 253.378,238.718 245.895 L 238.586 232.289 236.709 231.458 C 230.052 228.507,218.013 225.876,208.167 225.219 C 206.883 225.134,194.958 225.336,181.667 225.669 M230.667 360.866 C 212.188 365.879,181.119 370.806,156.667 372.601 L 153.500 372.833 153.274 375.000 C 153.149 376.192,152.969 377.879,152.873 378.750 L 152.698 380.333 192.357 380.333 L 232.017 380.333 232.374 379.417 C 233.526 376.461,234.394 371.827,235.842 360.917 C 236.047 359.373,236.162 359.374,230.667 360.866 " stroke="none" fill="#fbfbfb" fill-rule="evenodd"></path><path id="path1" d="M247.500 4.223 C 167.295 6.513,114.246 17.476,78.159 39.218 C 40.358 61.992,23.569 96.902,28.809 141.833 C 29.400 146.895,30.600 156.030,30.875 157.564 C 31.065 158.619,31.056 158.628,29.570 158.730 L 28.073 158.833 43.387 198.688 L 58.700 238.543 63.434 237.771 C 111.689 229.903,139.073 226.592,160.667 226.016 C 208.670 224.735,210.317 224.753,220.833 226.690 C 243.617 230.887,254.171 241.025,250.312 255.007 C 242.716 282.533,177.298 290.951,36.886 282.471 C 32.148 282.185,28.216 282.006,28.149 282.073 C 28.082 282.140,34.923 302.899,43.351 328.204 L 58.674 374.213 75.420 374.626 C 91.004 375.010,121.758 374.753,129.565 374.173 C 130.813 374.080,134.908 373.845,138.667 373.651 C 229.079 368.972,290.125 347.642,317.679 311.104 C 334.304 289.058,338.981 265.497,334.160 228.085 C 333.085 219.742,333.046 220.333,334.667 220.333 C 336.220 220.333,336.207 220.380,335.304 218.000 C 331.323 207.505,305.553 140.466,305.460 140.363 C 305.392 140.288,303.274 140.556,300.752 140.960 C 249.905 149.095,225.226 152.165,206.667 152.661 C 173.756 153.541,155.094 153.781,151.637 153.369 C 143.090 152.351,133.977 150.125,128.183 147.640 L 125.012 146.280 114.953 147.824 C 86.372 152.212,64.962 156.867,55.916 160.659 C 54.669 161.182,53.581 161.464,53.475 161.293 C 53.245 160.921,80.249 79.671,80.790 79.107 C 81.106 78.777,99.670 76.065,144.562 69.791 L 150.956 68.897 150.786 67.365 C 149.438 55.225,149.099 51.794,149.224 51.583 C 149.306 51.446,167.968 51.333,190.695 51.333 L 232.017 51.333 232.364 52.248 C 232.556 52.751,232.825 54.099,232.963 55.244 C 233.290 57.959,233.039 57.851,237.923 57.385 C 272.589 54.075,293.849 52.417,311.667 51.632 C 316.708 51.411,320.868 51.205,320.910 51.177 C 320.952 51.148,317.490 40.634,313.216 27.812 L 305.446 4.500 299.473 4.292 C 293.802 4.094,253.870 4.041,247.500 4.223 M318.882 78.518 C 315.793 87.790,313.318 95.420,313.383 95.472 C 313.627 95.671,335.704 96.741,335.882 96.562 C 335.985 96.459,333.466 88.564,330.283 79.017 L 324.498 61.659 318.882 78.518 " stroke="none" fill="#040404" fill-rule="evenodd"></path><path id="path2" d="M0.000 200.000 L 0.000 400.000 200.000 400.000 L 400.000 400.000 400.000 200.000 L 400.000 0.000 200.000 0.000 L 0.000 0.000 0.000 200.000 M301.861 4.219 L 305.555 4.429 313.360 27.899 L 321.165 51.369 324.210 51.308 C 328.228 51.227,328.114 50.928,326.216 56.565 L 324.554 61.500 330.437 79.145 C 333.673 88.850,336.283 96.828,336.238 96.873 C 336.165 96.946,325.434 96.391,316.333 95.843 L 313.167 95.652 307.228 113.410 C 303.962 123.176,301.082 131.654,300.827 132.250 L 300.366 133.333 291.433 133.338 C 279.592 133.344,259.178 133.885,247.547 134.501 C 242.388 134.775,237.884 134.999,237.538 134.999 C 236.979 135.000,236.937 149.357,237.494 149.935 C 237.764 150.215,272.729 145.230,293.000 142.023 C 299.875 140.935,305.544 140.147,305.597 140.272 C 305.651 140.398,312.575 158.425,320.985 180.333 L 336.275 220.167 334.778 220.269 L 333.281 220.372 333.480 221.603 C 342.547 277.679,328.367 313.058,286.606 338.549 C 274.360 346.025,251.652 355.545,237.813 359.005 L 236.125 359.427 235.738 363.297 C 235.168 368.993,234.135 374.630,233.089 377.749 L 232.167 380.500 192.573 380.585 C 157.581 380.660,152.958 380.611,152.788 380.168 C 152.682 379.892,152.729 378.147,152.894 376.289 L 153.192 372.912 150.179 373.121 C 124.301 374.922,79.919 375.555,61.859 374.382 L 58.552 374.167 43.200 328.103 C 34.757 302.769,27.920 281.983,28.008 281.913 C 28.095 281.843,31.167 281.972,34.833 282.200 C 51.523 283.237,81.404 284.499,101.667 285.021 C 117.708 285.434,156.437 285.342,156.889 284.889 C 157.042 284.736,157.214 271.499,157.271 255.472 L 157.376 226.333 154.105 226.338 C 142.884 226.353,113.105 230.089,70.347 236.845 C 64.029 237.843,58.753 238.549,58.623 238.413 C 58.339 238.118,28.000 159.087,28.000 158.642 C 28.000 158.472,28.621 158.333,29.380 158.333 L 30.760 158.333 30.561 156.750 C 30.451 155.879,29.876 151.567,29.282 147.167 C 23.569 104.834,35.205 71.764,63.833 48.972 C 100.679 19.638,159.964 5.758,256.500 3.866 C 264.261 3.714,297.534 3.973,301.861 4.219 M150.500 142.858 C 130.526 145.528,126.000 146.174,126.000 146.359 C 126.000 147.031,134.443 149.950,139.990 151.196 C 142.996 151.872,153.903 153.659,155.059 153.665 C 155.184 153.666,155.223 152.879,155.146 151.917 C 155.070 150.954,154.916 148.404,154.804 146.250 C 154.667 143.599,154.477 142.346,154.217 142.373 C 154.006 142.394,152.333 142.612,150.500 142.858 M238.922 250.548 C 238.971 260.513,239.107 268.667,239.224 268.667 C 239.990 268.667,244.390 264.742,246.391 262.274 C 250.719 256.936,252.064 249.727,249.834 243.804 C 248.231 239.545,245.574 236.647,240.167 233.264 L 238.833 232.430 238.922 250.548 " stroke="none" fill="#1bbb53" fill-rule="evenodd"></path><path id="path3" d="M267.605 3.916 C 270.963 3.971,276.363 3.971,279.605 3.916 C 282.847 3.862,280.100 3.817,273.500 3.817 C 266.900 3.817,264.247 3.862,267.605 3.916 M246.093 4.245 C 246.970 4.314,248.320 4.313,249.093 4.244 C 249.867 4.174,249.150 4.117,247.500 4.118 C 245.850 4.119,245.217 4.177,246.093 4.245 M296.427 4.245 C 297.303 4.314,298.653 4.313,299.427 4.244 C 300.200 4.174,299.483 4.117,297.833 4.118 C 296.183 4.119,295.550 4.177,296.427 4.245 M235.917 4.574 C 236.512 4.648,237.487 4.648,238.083 4.574 C 238.679 4.501,238.192 4.440,237.000 4.440 C 235.808 4.440,235.321 4.501,235.917 4.574 M228.256 4.908 C 228.855 4.982,229.755 4.981,230.256 4.905 C 230.757 4.829,230.267 4.768,229.167 4.770 C 228.067 4.772,227.657 4.834,228.256 4.908 M222.250 5.235 C 222.662 5.315,223.338 5.315,223.750 5.235 C 224.162 5.156,223.825 5.091,223.000 5.091 C 222.175 5.091,221.838 5.156,222.250 5.235 M216.583 5.569 C 216.996 5.648,217.671 5.648,218.083 5.569 C 218.496 5.489,218.158 5.424,217.333 5.424 C 216.508 5.424,216.171 5.489,216.583 5.569 M211.587 5.902 C 212.002 5.982,212.602 5.979,212.921 5.896 C 213.239 5.812,212.900 5.747,212.167 5.751 C 211.433 5.754,211.173 5.823,211.587 5.902 M206.750 6.230 C 207.071 6.314,207.596 6.314,207.917 6.230 C 208.237 6.146,207.975 6.077,207.333 6.077 C 206.692 6.077,206.429 6.146,206.750 6.230 M198.417 6.896 C 198.737 6.980,199.262 6.980,199.583 6.896 C 199.904 6.813,199.642 6.744,199.000 6.744 C 198.358 6.744,198.096 6.813,198.417 6.896 M315.250 51.577 C 316.029 51.648,317.304 51.648,318.083 51.577 C 318.862 51.507,318.225 51.450,316.667 51.450 C 315.108 51.450,314.471 51.507,315.250 51.577 M307.750 51.905 C 308.254 51.982,309.079 51.982,309.583 51.905 C 310.087 51.829,309.675 51.767,308.667 51.767 C 307.658 51.767,307.246 51.829,307.750 51.905 M301.417 52.239 C 301.921 52.315,302.746 52.315,303.250 52.239 C 303.754 52.162,303.342 52.100,302.333 52.100 C 301.325 52.100,300.912 52.162,301.417 52.239 M296.587 52.569 C 297.002 52.649,297.602 52.646,297.921 52.562 C 298.239 52.479,297.900 52.414,297.167 52.417 C 296.433 52.421,296.173 52.489,296.587 52.569 M291.250 52.902 C 291.662 52.981,292.337 52.981,292.750 52.902 C 293.162 52.822,292.825 52.757,292.000 52.757 C 291.175 52.757,290.837 52.822,291.250 52.902 M286.587 53.236 C 287.002 53.315,287.602 53.312,287.921 53.229 C 288.239 53.146,287.900 53.080,287.167 53.084 C 286.433 53.088,286.173 53.156,286.587 53.236 M282.254 53.569 C 282.669 53.649,283.269 53.646,283.587 53.562 C 283.906 53.479,283.567 53.414,282.833 53.417 C 282.100 53.421,281.839 53.489,282.254 53.569 M54.993 56.917 L 51.833 60.167 55.083 57.007 C 56.871 55.269,58.333 53.806,58.333 53.757 C 58.333 53.515,57.928 53.898,54.993 56.917 M278.083 53.896 C 278.404 53.980,278.929 53.980,279.250 53.896 C 279.571 53.813,279.308 53.744,278.667 53.744 C 278.025 53.744,277.762 53.813,278.083 53.896 M273.921 54.236 C 274.335 54.315,274.935 54.312,275.254 54.229 C 275.573 54.146,275.233 54.080,274.500 54.084 C 273.767 54.088,273.506 54.156,273.921 54.236 M269.750 54.563 C 270.071 54.647,270.596 54.647,270.917 54.563 C 271.237 54.479,270.975 54.411,270.333 54.411 C 269.692 54.411,269.429 54.479,269.750 54.563 M266.083 54.896 C 266.404 54.980,266.929 54.980,267.250 54.896 C 267.571 54.813,267.308 54.744,266.667 54.744 C 266.025 54.744,265.762 54.813,266.083 54.896 M262.083 55.230 C 262.404 55.314,262.929 55.314,263.250 55.230 C 263.571 55.146,263.308 55.077,262.667 55.077 C 262.025 55.077,261.762 55.146,262.083 55.230 M258.417 55.563 C 258.737 55.647,259.262 55.647,259.583 55.563 C 259.904 55.479,259.642 55.411,259.000 55.411 C 258.358 55.411,258.096 55.479,258.417 55.563 M247.417 56.563 C 247.737 56.647,248.262 56.647,248.583 56.563 C 248.904 56.479,248.642 56.411,248.000 56.411 C 247.358 56.411,247.096 56.479,247.417 56.563 M233.005 57.417 C 233.001 57.878,233.261 57.990,234.250 57.950 C 235.384 57.905,235.407 57.886,234.501 57.753 C 233.952 57.673,233.391 57.433,233.256 57.220 C 233.097 56.969,233.008 57.038,233.005 57.417 M316.417 95.905 C 316.921 95.982,317.746 95.982,318.250 95.905 C 318.754 95.829,318.342 95.767,317.333 95.767 C 316.325 95.767,315.912 95.829,316.417 95.905 M322.917 96.235 C 323.329 96.315,324.004 96.315,324.417 96.235 C 324.829 96.156,324.492 96.091,323.667 96.091 C 322.842 96.091,322.504 96.156,322.917 96.235 M328.917 96.569 C 329.329 96.648,330.004 96.648,330.417 96.569 C 330.829 96.489,330.492 96.424,329.667 96.424 C 328.842 96.424,328.504 96.489,328.917 96.569 M335.167 96.667 L 334.167 96.921 335.250 96.961 C 335.846 96.982,336.333 96.850,336.333 96.667 C 336.333 96.483,336.296 96.351,336.250 96.373 C 336.204 96.394,335.717 96.527,335.167 96.667 M28.084 118.500 C 28.088 119.233,28.156 119.494,28.236 119.079 C 28.315 118.665,28.312 118.065,28.229 117.746 C 28.146 117.427,28.080 117.767,28.084 118.500 M28.084 135.167 C 28.088 135.900,28.156 136.161,28.236 135.746 C 28.315 135.331,28.312 134.731,28.229 134.413 C 28.146 134.094,28.080 134.433,28.084 135.167 M211.755 152.573 C 212.261 152.649,213.011 152.647,213.421 152.568 C 213.831 152.489,213.417 152.426,212.500 152.429 C 211.583 152.431,211.248 152.496,211.755 152.573 M196.417 152.909 C 197.104 152.981,198.229 152.981,198.917 152.909 C 199.604 152.838,199.042 152.779,197.667 152.779 C 196.292 152.779,195.729 152.838,196.417 152.909 M181.083 153.243 C 181.771 153.315,182.896 153.315,183.583 153.243 C 184.271 153.171,183.708 153.112,182.333 153.112 C 180.958 153.112,180.396 153.171,181.083 153.243 M165.750 153.576 C 166.438 153.648,167.563 153.648,168.250 153.576 C 168.938 153.504,168.375 153.445,167.000 153.445 C 165.625 153.445,165.063 153.504,165.750 153.576 M30.667 157.814 C 30.667 158.138,30.203 158.337,29.250 158.423 L 27.833 158.550 29.417 158.608 C 30.797 158.659,31.000 158.581,31.000 158.000 C 31.000 157.633,30.925 157.333,30.833 157.333 C 30.742 157.333,30.667 157.550,30.667 157.814 M198.417 225.243 C 199.104 225.315,200.229 225.315,200.917 225.243 C 201.604 225.171,201.042 225.112,199.667 225.112 C 198.292 225.112,197.729 225.171,198.417 225.243 M183.417 225.576 C 184.104 225.648,185.229 225.648,185.917 225.576 C 186.604 225.504,186.042 225.445,184.667 225.445 C 183.292 225.445,182.729 225.504,183.417 225.576 M168.243 225.907 C 168.834 225.981,169.884 225.982,170.576 225.910 C 171.267 225.838,170.783 225.778,169.500 225.776 C 168.217 225.775,167.651 225.834,168.243 225.907 M155.088 226.239 C 155.595 226.316,156.345 226.314,156.755 226.235 C 157.165 226.156,156.750 226.093,155.833 226.095 C 154.917 226.098,154.581 226.163,155.088 226.239 M147.250 226.569 C 147.662 226.648,148.337 226.648,148.750 226.569 C 149.162 226.489,148.825 226.424,148.000 226.424 C 147.175 226.424,146.837 226.489,147.250 226.569 M143.083 226.896 C 143.404 226.980,143.929 226.980,144.250 226.896 C 144.571 226.813,144.308 226.744,143.667 226.744 C 143.025 226.744,142.762 226.813,143.083 226.896 M245.667 237.438 C 245.667 237.495,246.154 237.983,246.750 238.521 L 247.833 239.500 246.854 238.417 C 245.942 237.407,245.667 237.180,245.667 237.438 M335.744 242.000 C 335.744 242.642,335.813 242.904,335.896 242.583 C 335.980 242.262,335.980 241.737,335.896 241.417 C 335.813 241.096,335.744 241.358,335.744 242.000 M336.137 251.333 C 336.137 254.542,336.187 255.854,336.248 254.250 C 336.309 252.646,336.309 250.021,336.248 248.417 C 336.187 246.813,336.137 248.125,336.137 251.333 M243.146 265.750 L 242.167 266.833 243.250 265.854 C 243.846 265.316,244.333 264.828,244.333 264.771 C 244.333 264.513,244.058 264.740,243.146 265.750 M32.254 282.236 C 32.669 282.315,33.269 282.312,33.587 282.229 C 33.906 282.146,33.567 282.080,32.833 282.084 C 32.100 282.088,31.839 282.156,32.254 282.236 M37.583 282.569 C 37.996 282.648,38.671 282.648,39.083 282.569 C 39.496 282.489,39.158 282.424,38.333 282.424 C 37.508 282.424,37.171 282.489,37.583 282.569 M43.755 282.906 C 44.261 282.982,45.011 282.980,45.421 282.901 C 45.831 282.822,45.417 282.760,44.500 282.762 C 43.583 282.765,43.248 282.829,43.755 282.906 M50.083 283.239 C 50.587 283.315,51.413 283.315,51.917 283.239 C 52.421 283.162,52.008 283.100,51.000 283.100 C 49.992 283.100,49.579 283.162,50.083 283.239 M57.417 283.572 C 57.921 283.648,58.746 283.648,59.250 283.572 C 59.754 283.496,59.342 283.433,58.333 283.433 C 57.325 283.433,56.913 283.496,57.417 283.572 M64.589 283.908 C 65.188 283.982,66.088 283.981,66.589 283.905 C 67.090 283.829,66.600 283.768,65.500 283.770 C 64.400 283.772,63.990 283.834,64.589 283.908 M72.250 284.241 C 72.846 284.315,73.821 284.315,74.417 284.241 C 75.012 284.167,74.525 284.107,73.333 284.107 C 72.142 284.107,71.654 284.167,72.250 284.241 M80.243 284.574 C 80.834 284.648,81.884 284.649,82.576 284.577 C 83.267 284.504,82.783 284.444,81.500 284.443 C 80.217 284.441,79.651 284.500,80.243 284.574 M90.093 284.912 C 90.970 284.981,92.320 284.980,93.093 284.910 C 93.867 284.840,93.150 284.784,91.500 284.785 C 89.850 284.786,89.217 284.843,90.093 284.912 M164.587 284.902 C 165.002 284.982,165.602 284.979,165.921 284.896 C 166.239 284.812,165.900 284.747,165.167 284.751 C 164.433 284.754,164.173 284.823,164.587 284.902 M102.250 285.246 C 103.212 285.313,104.787 285.313,105.750 285.246 C 106.712 285.178,105.925 285.123,104.000 285.123 C 102.075 285.123,101.287 285.178,102.250 285.246 M154.427 285.245 C 155.303 285.314,156.653 285.313,157.427 285.244 C 158.200 285.174,157.483 285.117,155.833 285.118 C 154.183 285.119,153.550 285.177,154.427 285.245 M124.728 285.583 C 128.336 285.637,134.336 285.637,138.061 285.583 C 141.786 285.529,138.833 285.485,131.500 285.485 C 124.167 285.485,121.119 285.529,124.728 285.583 M147.750 373.230 C 148.071 373.314,148.596 373.314,148.917 373.230 C 149.237 373.146,148.975 373.077,148.333 373.077 C 147.692 373.077,147.429 373.146,147.750 373.230 M142.421 373.573 C 142.928 373.649,143.678 373.647,144.088 373.568 C 144.498 373.489,144.083 373.426,143.167 373.429 C 142.250 373.431,141.915 373.496,142.421 373.573 M136.583 373.902 C 136.996 373.981,137.671 373.981,138.083 373.902 C 138.496 373.822,138.158 373.757,137.333 373.757 C 136.508 373.757,136.171 373.822,136.583 373.902 M129.917 374.241 C 130.512 374.315,131.487 374.315,132.083 374.241 C 132.679 374.167,132.192 374.107,131.000 374.107 C 129.808 374.107,129.321 374.167,129.917 374.241 M65.928 374.579 C 66.896 374.647,68.396 374.646,69.261 374.578 C 70.126 374.509,69.333 374.454,67.500 374.455 C 65.667 374.456,64.959 374.512,65.928 374.579 M121.250 374.574 C 121.846 374.648,122.821 374.648,123.417 374.574 C 124.013 374.501,123.525 374.440,122.333 374.440 C 121.142 374.440,120.654 374.501,121.250 374.574 M78.760 374.912 C 79.636 374.981,80.986 374.980,81.760 374.910 C 82.534 374.840,81.817 374.784,80.167 374.785 C 78.517 374.786,77.884 374.843,78.760 374.912 M103.066 374.915 C 104.661 374.976,107.361 374.976,109.066 374.915 C 110.772 374.855,109.467 374.805,106.167 374.804 C 102.867 374.804,101.472 374.854,103.066 374.915 " stroke="none" fill="#1f6f3c" fill-rule="evenodd"></path><path id="path4" d="M320.088 51.573 C 320.595 51.649,321.345 51.647,321.755 51.568 C 322.165 51.489,321.750 51.426,320.833 51.429 C 319.917 51.431,319.581 51.496,320.088 51.573 M310.917 51.902 C 311.329 51.981,312.004 51.981,312.417 51.902 C 312.829 51.822,312.492 51.757,311.667 51.757 C 310.842 51.757,310.504 51.822,310.917 51.902 M304.587 52.236 C 305.002 52.315,305.602 52.312,305.921 52.229 C 306.239 52.146,305.900 52.080,305.167 52.084 C 304.433 52.088,304.173 52.156,304.587 52.236 M298.750 52.563 C 299.071 52.647,299.596 52.647,299.917 52.563 C 300.237 52.479,299.975 52.411,299.333 52.411 C 298.692 52.411,298.429 52.479,298.750 52.563 M293.750 52.896 C 294.071 52.980,294.596 52.980,294.917 52.896 C 295.237 52.813,294.975 52.744,294.333 52.744 C 293.692 52.744,293.429 52.813,293.750 52.896 M268.583 133.582 C 270.279 133.642,273.054 133.642,274.750 133.582 C 276.446 133.521,275.058 133.472,271.667 133.472 C 268.275 133.472,266.887 133.521,268.583 133.582 M257.928 133.913 C 258.896 133.980,260.396 133.980,261.261 133.911 C 262.126 133.843,261.333 133.788,259.500 133.788 C 257.667 133.789,256.959 133.845,257.928 133.913 M250.592 134.244 C 251.376 134.315,252.576 134.314,253.259 134.242 C 253.941 134.171,253.300 134.113,251.833 134.114 C 250.367 134.115,249.808 134.174,250.592 134.244 M243.592 134.578 C 244.376 134.648,245.576 134.647,246.259 134.576 C 246.941 134.504,246.300 134.446,244.833 134.448 C 243.367 134.449,242.808 134.507,243.592 134.578 M236.805 135.121 C 236.709 135.370,236.685 136.458,236.752 137.537 L 236.874 139.500 236.937 137.266 L 237.000 135.032 239.083 134.913 L 241.167 134.795 239.073 134.731 C 237.567 134.685,236.930 134.794,236.805 135.121 M154.597 143.583 C 154.760 146.116,154.920 146.335,154.961 144.083 C 154.983 142.938,154.886 142.000,154.748 142.000 C 154.609 142.000,154.541 142.712,154.597 143.583 M152.083 142.563 C 152.404 142.647,152.929 142.647,153.250 142.563 C 153.571 142.479,153.308 142.411,152.667 142.411 C 152.025 142.411,151.762 142.479,152.083 142.563 M149.417 142.896 C 149.737 142.980,150.262 142.980,150.583 142.896 C 150.904 142.813,150.642 142.744,150.000 142.744 C 149.358 142.744,149.096 142.813,149.417 142.896 M146.750 143.230 C 147.071 143.314,147.596 143.314,147.917 143.230 C 148.237 143.146,147.975 143.077,147.333 143.077 C 146.692 143.077,146.429 143.146,146.750 143.230 M237.070 146.389 C 237.021 148.866,236.874 149.995,236.583 150.113 C 236.257 150.244,236.259 150.286,236.594 150.307 C 237.263 150.348,237.367 149.690,237.249 146.143 L 237.140 142.833 237.070 146.389 M129.417 145.563 C 129.737 145.647,130.262 145.647,130.583 145.563 C 130.904 145.479,130.642 145.411,130.000 145.411 C 129.358 145.411,129.096 145.479,129.417 145.563 M155.114 150.167 C 155.115 151.633,155.174 152.192,155.244 151.408 C 155.315 150.624,155.314 149.424,155.242 148.741 C 155.171 148.059,155.113 148.700,155.114 150.167 M207.917 152.574 C 208.512 152.648,209.487 152.648,210.083 152.574 C 210.679 152.501,210.192 152.440,209.000 152.440 C 207.808 152.440,207.321 152.501,207.917 152.574 M192.589 152.908 C 193.188 152.982,194.088 152.981,194.589 152.905 C 195.090 152.829,194.600 152.768,193.500 152.770 C 192.400 152.772,191.990 152.834,192.589 152.908 M176.917 153.241 C 177.512 153.315,178.487 153.315,179.083 153.241 C 179.679 153.167,179.192 153.107,178.000 153.107 C 176.808 153.107,176.321 153.167,176.917 153.241 M161.583 153.574 C 162.179 153.648,163.154 153.648,163.750 153.574 C 164.346 153.501,163.858 153.440,162.667 153.440 C 161.475 153.440,160.987 153.501,161.583 153.574 M202.923 225.242 C 203.522 225.316,204.422 225.314,204.923 225.238 C 205.424 225.162,204.933 225.101,203.833 225.103 C 202.733 225.105,202.324 225.167,202.923 225.242 M187.923 225.575 C 188.522 225.649,189.422 225.648,189.923 225.572 C 190.424 225.495,189.933 225.435,188.833 225.437 C 187.733 225.438,187.324 225.501,187.923 225.575 M172.583 225.908 C 173.179 225.982,174.154 225.982,174.750 225.908 C 175.346 225.834,174.858 225.773,173.667 225.773 C 172.475 225.773,171.987 225.834,172.583 225.908 M158.088 226.239 C 158.595 226.316,159.345 226.314,159.755 226.235 C 160.165 226.156,159.750 226.093,158.833 226.095 C 157.917 226.098,157.581 226.163,158.088 226.239 M238.817 244.000 C 238.817 250.325,238.861 252.912,238.916 249.750 C 238.971 246.588,238.971 241.412,238.916 238.250 C 238.861 235.088,238.817 237.675,238.817 244.000 M157.489 254.333 C 157.489 264.508,157.531 268.671,157.583 263.583 C 157.635 258.496,157.635 250.171,157.583 245.083 C 157.531 239.996,157.489 244.158,157.489 254.333 M238.795 265.000 C 238.795 267.292,238.848 268.229,238.913 267.083 C 238.979 265.938,238.979 264.063,238.913 262.917 C 238.848 261.771,238.795 262.708,238.795 265.000 M157.109 282.833 C 157.111 284.117,157.171 284.601,157.243 283.909 C 157.315 283.218,157.314 282.168,157.241 281.576 C 157.167 280.984,157.108 281.550,157.109 282.833 M235.744 361.667 C 235.744 362.308,235.813 362.571,235.896 362.250 C 235.980 361.929,235.980 361.404,235.896 361.083 C 235.813 360.762,235.744 361.025,235.744 361.667 M235.411 364.667 C 235.411 365.308,235.479 365.571,235.563 365.250 C 235.647 364.929,235.647 364.404,235.563 364.083 C 235.479 363.762,235.411 364.025,235.411 364.667 M153.091 374.667 C 153.091 375.492,153.156 375.829,153.235 375.417 C 153.315 375.004,153.315 374.329,153.235 373.917 C 153.156 373.504,153.091 373.842,153.091 374.667 M152.751 378.167 C 152.754 378.900,152.823 379.161,152.902 378.746 C 152.982 378.331,152.979 377.731,152.896 377.413 C 152.812 377.094,152.747 377.433,152.751 378.167 M192.500 380.333 L 152.833 380.504 192.397 380.585 C 218.501 380.639,232.031 380.553,232.167 380.333 C 232.280 380.150,232.326 380.037,232.270 380.081 C 232.213 380.126,214.317 380.239,192.500 380.333 " stroke="none" fill="#54cc7c" fill-rule="evenodd"></path></g></svg>